# xmcd CD database file
#
# Track frame offsets:
#	150
#	23107
#	46025
#	69015
#
# Disc length: 1219 seconds
#
# Revision: 0
# Processed by: cddbd v1.5.1PL2 Copyright (c) Steve Scherf et al.
# Submitted via: CDex 1.51
#
DISCID=2204c104
DTITLE=J6 - Destination
DYEAR=1999
DGENRE=J-pop
TTITLE0=Destination
TTITLE1=Destination EAST WEST VERSION
TTITLE2=Destination オリジナルカラオケ
TTITLE3=JOCKEY TALK
EXTD=YEAR: 1999
EXTT0=
EXTT1=
EXTT2=
EXTT3=
PLAYORDER=
